<svg xmlns="http://www.w3.org/2000/svg" xmlns:xlink="http://www.w3.org/1999/xlink" width="500" zoomAndPan="magnify" viewBox="0 0 375 374.999991" height="500" preserveAspectRatio="xMidYMid meet" version="1.0"><path fill="#d5a1ff" d="M 187.496094 174.179688 C 144.339844 134.125 86.765625 109.488281 23.261719 109.488281 L 23.261719 310.21875 C 86.765625 310.21875 144.339844 334.855469 187.496094 374.910156 C 230.652344 334.855469 288.226562 310.21875 351.730469 310.21875 L 351.730469 109.488281 C 288.226562 109.488281 230.652344 134.125 187.496094 174.179688 Z M 187.496094 109.488281 C 217.695312 109.488281 242.238281 84.945312 242.238281 54.746094 C 242.238281 24.542969 217.695312 0 187.496094 0 C 157.292969 0 132.75 24.542969 132.75 54.746094 C 132.75 84.945312 157.292969 109.488281 187.496094 109.488281 Z M 187.496094 109.488281 " fill-opacity="1" fill-rule="nonzero"/></svg>